<svg width="713" height="635" viewBox="0 0 713 635" fill="none" xmlns="http://www.w3.org/2000/svg">
<path d="M128.336 228.655L134.202 227.395C133.934 226.144 133.273 225.012 132.315 224.164L128.336 228.655ZM176.839 454.524L170.972 455.784C171.221 456.941 171.807 458 172.655 458.825L176.839 454.524ZM355.739 628.521L354.44 634.379C357.059 634.96 359.745 633.732 361.019 631.371C362.293 629.01 361.845 626.091 359.922 624.22L355.739 628.521ZM26.6864 138.579L30.6657 134.088C28.4929 132.163 25.2533 132.069 22.973 133.866L26.6864 138.579ZM176.839 553.304L180.038 548.228L180.038 548.228L176.839 553.304ZM352.167 106.924C355.43 106.348 357.609 103.236 357.034 99.9729C356.458 96.7095 353.346 94.5305 350.083 95.106L352.167 106.924ZM278.696 113.786L277.654 107.877C276.218 108.13 274.924 108.898 274.012 110.036L278.696 113.786ZM284.802 148.419L281.701 153.555C282.944 154.305 284.415 154.58 285.844 154.328L284.802 148.419ZM358.274 141.557C361.537 140.981 363.716 137.869 363.14 134.606C362.565 131.342 359.453 129.163 356.19 129.739L358.274 141.557ZM364.327 95.106C361.064 94.5305 357.952 96.7095 357.377 99.9729C356.801 103.236 358.98 106.348 362.244 106.924L364.327 95.106ZM435.715 113.786L440.398 110.036C439.487 108.898 438.192 108.13 436.757 107.877L435.715 113.786ZM429.608 148.419L428.566 154.328C429.995 154.58 431.467 154.305 432.709 153.555L429.608 148.419ZM358.221 129.739C354.957 129.163 351.845 131.342 351.27 134.606C350.695 137.869 352.874 140.981 356.137 141.557L358.221 129.739ZM388.344 545.074L393.952 547.205C394.211 546.524 394.344 545.802 394.344 545.074H388.344ZM325.043 545.234H319.043C319.043 545.962 319.175 546.684 319.434 547.365L325.043 545.234ZM340.863 6.8623V0.862305H334.863V6.8623H340.863ZM340.863 101.014H334.863V107.014H340.863V101.014ZM371.715 101.014V107.014H377.715V101.014H371.715ZM371.715 6.8623H377.715V0.862305H371.715V6.8623ZM584.594 228.655L580.614 224.164C579.657 225.012 578.996 226.144 578.727 227.395L584.594 228.655ZM536.091 454.524L540.274 458.825C541.123 458 541.709 456.941 541.957 455.784L536.091 454.524ZM357.191 628.521L353.007 624.22C351.084 626.091 350.636 629.01 351.91 631.371C353.184 633.732 355.871 634.96 358.49 634.379L357.191 628.521ZM686.243 138.579L689.957 133.866C687.676 132.069 684.437 132.163 682.264 134.088L686.243 138.579ZM536.091 553.304L532.891 548.228L532.891 548.228L536.091 553.304ZM186.792 271.836L183.719 266.683L180.214 268.773L180.87 272.8L186.792 271.836ZM357.139 170.229L360.211 165.075L357.138 163.243L354.065 165.076L357.139 170.229ZM213.787 437.586L207.865 438.551L208.246 440.895L210.13 442.343L213.787 437.586ZM527.594 271.836L533.516 272.8L534.172 268.772L530.666 266.682L527.594 271.836ZM500.6 437.586L504.255 442.344L506.14 440.897L506.522 438.551L500.6 437.586ZM357.139 547.797L353.482 552.553L357.137 555.364L360.794 552.555L357.139 547.797ZM357.177 462.117L353.829 467.096L357.177 469.347L360.525 467.096L357.177 462.117ZM357.177 332.45L352.801 336.555L357.177 341.218L361.553 336.555L357.177 332.45ZM122.47 229.914L170.972 455.784L182.705 453.264L134.202 227.395L122.47 229.914ZM172.655 458.825L351.556 632.823L359.922 624.22L181.022 450.223L172.655 458.825ZM132.315 224.164L30.6657 134.088L22.7071 143.069L124.357 233.145L132.315 224.164ZM22.973 133.866C-2.54667 153.974 -2.11723 181.503 3.82031 204.169C6.78858 215.5 11.219 226.042 14.7686 234.37C16.5752 238.609 18.103 242.156 19.1962 245.097C20.3686 248.252 20.6864 249.827 20.6864 250.378H32.6864C32.6864 247.414 31.5825 243.979 30.4444 240.917C29.2271 237.642 27.5558 233.766 25.8077 229.665C22.2483 221.314 18.1477 211.508 15.4286 201.128C9.99152 180.372 10.421 159.034 30.3998 143.292L22.973 133.866ZM22.2993 254.471L123.949 363.426L132.723 355.24L31.0736 246.285L22.2993 254.471ZM21.9615 246.68C0.134112 274.57 0.255614 304.067 9.4612 330.678C18.5555 356.967 36.6051 380.831 51.2434 398.621L60.5098 390.997C45.958 373.312 29.1409 350.861 20.8018 326.755C12.5741 302.97 12.6955 277.99 31.4114 254.076L21.9615 246.68ZM51.4894 398.902L123.949 476.569L132.723 468.383L60.2638 390.716L51.4894 398.902ZM50.6802 391.809C42.5995 405.808 40.863 420.197 44.4035 434.626C47.8931 448.846 56.4188 462.78 68.2675 476.395C91.9146 503.568 130.125 530.948 173.639 558.379L180.038 548.228C136.572 520.826 99.7061 494.242 77.3197 468.518C66.1517 455.684 58.9214 443.436 56.0578 431.766C53.2453 420.304 54.5587 409.094 61.0729 397.809L50.6802 391.809ZM355.739 628.521C357.038 622.664 357.039 622.664 357.039 622.664C357.039 622.664 357.039 622.664 357.038 622.664C357.037 622.663 357.034 622.663 357.03 622.662C357.021 622.66 357.007 622.657 356.988 622.653C356.949 622.644 356.888 622.63 356.806 622.611C356.641 622.574 356.389 622.516 356.054 622.437C355.383 622.28 354.378 622.04 353.062 621.714C350.429 621.062 346.553 620.066 341.621 618.698C331.758 615.961 317.683 611.74 300.904 605.817C267.32 593.962 223.035 575.333 180.038 548.228L173.639 558.379C217.623 586.107 262.788 605.088 296.909 617.133C313.983 623.16 328.324 627.462 338.413 630.261C343.459 631.661 347.443 632.686 350.177 633.363C351.544 633.701 352.599 633.953 353.317 634.121C353.676 634.205 353.951 634.268 354.139 634.311C354.233 634.333 354.306 634.349 354.356 634.36C354.381 634.366 354.401 634.37 354.415 634.374C354.422 634.375 354.427 634.376 354.431 634.377C354.434 634.378 354.436 634.378 354.437 634.378C354.438 634.379 354.44 634.379 355.739 628.521ZM681.856 246.285L580.207 355.24L588.981 363.426L690.631 254.471L681.856 246.285ZM652.666 390.716L580.207 468.383L588.981 476.569L661.44 398.902L652.666 390.716ZM394.025 188.294V136.342H382.025V188.294H394.025ZM330.556 188.294V136.342H318.556V188.294H330.556ZM351.17 547.797V614.695H363.17V547.797H351.17ZM363.17 170.31V131.067H351.17V170.31H363.17ZM350.083 95.106L277.654 107.877L279.738 119.695L352.167 106.924L350.083 95.106ZM274.012 110.036C266.499 119.418 262.124 127.899 264.434 136.172C265.569 140.24 268.127 143.44 271.08 146.092C274.008 148.72 277.706 151.144 281.701 153.555L287.903 143.282C284.017 140.936 281.136 138.993 279.097 137.162C277.084 135.355 276.287 134.004 275.992 132.945C275.439 130.964 275.892 126.887 283.379 117.536L274.012 110.036ZM285.844 154.328L358.274 141.557L356.19 129.739L283.761 142.51L285.844 154.328ZM362.244 106.924L434.673 119.695L436.757 107.877L364.327 95.106L362.244 106.924ZM431.031 117.536C438.518 126.887 438.972 130.964 438.419 132.945C438.123 134.004 437.327 135.355 435.314 137.162C433.275 138.993 430.394 140.936 426.507 143.282L432.709 153.555C436.704 151.144 440.402 148.72 443.33 146.092C446.283 143.44 448.841 140.24 449.977 136.172C452.286 127.899 447.911 119.418 440.398 110.036L431.031 117.536ZM430.65 142.51L358.221 129.739L356.137 141.557L428.566 154.328L430.65 142.51ZM362.302 630.494L393.952 547.205L382.735 542.942L351.084 626.231L362.302 630.494ZM394.344 545.074V523.98H382.344V545.074H394.344ZM362.302 626.391L330.651 543.102L319.434 547.365L351.084 630.653L362.302 626.391ZM331.043 545.234V524.14H319.043V545.234H331.043ZM334.863 6.8623V101.014H346.863V6.8623H334.863ZM340.863 107.014H371.715V95.0144H340.863V107.014ZM377.715 101.014V6.8623H365.715V101.014H377.715ZM371.715 0.862305H340.863V12.8623H371.715V0.862305ZM578.727 227.395L530.225 453.264L541.957 455.784L590.46 229.914L578.727 227.395ZM531.908 450.223L353.007 624.22L361.374 632.823L540.274 458.825L531.908 450.223ZM588.573 233.145L690.222 143.069L682.264 134.088L580.614 224.164L588.573 233.145ZM682.53 143.292C702.509 159.034 702.938 180.372 697.501 201.128C694.782 211.507 690.682 221.314 687.122 229.665C685.374 233.766 683.703 237.641 682.486 240.916C681.347 243.978 680.243 247.414 680.243 250.378H692.243C692.243 249.826 692.561 248.251 693.734 245.097C694.827 242.156 696.355 238.609 698.161 234.37C701.711 226.042 706.141 215.5 709.109 204.169C715.047 181.503 715.476 153.974 689.957 133.866L682.53 143.292ZM681.519 254.076C700.234 277.99 700.356 302.97 692.128 326.755C683.789 350.861 666.972 373.311 652.42 390.997L661.686 398.621C676.325 380.831 694.374 356.967 703.469 330.678C712.674 304.066 712.796 274.569 690.968 246.68L681.519 254.076ZM651.857 397.809C658.371 409.093 659.685 420.304 656.872 431.766C654.008 443.436 646.778 455.684 635.61 468.518C613.224 494.242 576.358 520.826 532.891 548.228L539.291 558.379C582.804 530.948 621.015 503.568 644.662 476.395C656.511 462.78 665.037 448.846 668.526 434.625C672.067 420.196 670.33 405.808 662.25 391.809L651.857 397.809ZM357.191 628.521C358.49 634.379 358.491 634.379 358.493 634.378C358.494 634.378 358.496 634.378 358.498 634.377C358.502 634.376 358.508 634.375 358.515 634.374C358.529 634.37 358.549 634.366 358.574 634.36C358.624 634.349 358.696 634.333 358.79 634.311C358.978 634.268 359.254 634.205 359.613 634.121C360.331 633.953 361.385 633.701 362.752 633.363C365.486 632.686 369.471 631.661 374.516 630.261C384.606 627.462 398.947 623.16 416.02 617.133C450.142 605.088 495.307 586.107 539.291 558.379L532.891 548.228C489.894 575.333 445.609 593.962 412.026 605.817C395.247 611.74 381.172 615.961 371.308 618.698C366.377 620.066 362.501 621.062 359.868 621.714C358.552 622.04 357.546 622.28 356.876 622.437C356.54 622.516 356.289 622.574 356.124 622.611C356.041 622.63 355.98 622.644 355.942 622.653C355.922 622.657 355.908 622.66 355.9 622.662C355.896 622.663 355.893 622.663 355.892 622.664C355.891 622.664 355.891 622.664 355.891 622.664C355.891 622.664 355.892 622.664 357.191 628.521ZM189.866 276.989L360.212 175.382L354.065 165.076L183.719 266.683L189.866 276.989ZM180.87 272.8L207.865 438.551L219.709 436.622L192.714 270.871L180.87 272.8ZM530.666 266.682L360.211 165.075L354.067 175.383L524.522 276.989L530.666 266.682ZM521.672 270.871L494.678 436.622L506.522 438.551L533.516 272.8L521.672 270.871ZM210.13 442.343L353.482 552.553L360.796 543.04L217.444 432.83L210.13 442.343ZM496.945 432.828L353.484 543.038L360.794 552.555L504.255 442.344L496.945 432.828ZM360.525 467.096C399.075 441.179 423.48 414.695 436.998 390.52C450.48 366.408 453.321 344.182 447.804 327.328C442.201 310.21 428.126 299.374 410.157 298.844C392.51 298.324 372.154 307.718 352.801 328.344L361.553 336.555C379.456 317.474 396.723 310.453 409.804 310.839C422.563 311.215 432.322 318.604 436.399 331.061C440.563 343.781 438.93 362.476 426.524 384.663C414.154 406.786 391.256 431.976 353.829 457.138L360.525 467.096ZM360.525 457.138C323.098 431.976 300.2 406.786 287.83 384.663C275.424 362.476 273.791 343.781 277.955 331.061C282.032 318.604 291.791 311.215 304.55 310.839C317.631 310.453 334.898 317.474 352.801 336.555L361.553 328.344C342.2 307.718 321.844 298.324 304.197 298.844C286.228 299.374 272.153 310.21 266.55 327.328C261.033 344.182 263.874 366.408 277.356 390.52C290.874 414.695 315.279 441.179 353.829 467.096L360.525 457.138Z" fill="white" fill-opacity="0.05"/>
</svg>
