<svg width="506" height="451" viewBox="0 0 506 451" fill="none" xmlns="http://www.w3.org/2000/svg">
<path d="M17.4429 176.94C17.4429 166.894 -15.0561 122.69 17.4429 97.0833L90.0497 161.423L124.695 322.758L252.48 447.042C252.48 447.042 186.824 432.482 124.695 393.315C62.5655 354.149 17.4429 316.224 38.293 280.105M17.4429 176.94L90.0497 254.765M17.4429 176.94C-11.5165 213.942 17.4429 254.765 38.293 280.105M38.293 280.105L90.0497 335.581" stroke="white" stroke-width="6" stroke-linejoin="round"/>
<path d="M488.556 176.94L415.949 254.765M467.706 280.105C447.494 301.77 436.161 313.916 415.949 335.581" stroke="white" stroke-width="6" stroke-linejoin="round"/>
<path d="M275.543 132.594V95.4856" stroke="white" stroke-width="6" stroke-linejoin="round"/>
<path d="M230.207 132.594V95.4856" stroke="white" stroke-width="6" stroke-linejoin="round"/>
<path d="M253.504 389.382V437.166" stroke="white" stroke-width="6"/>
<path d="M253.504 119.748V91.7173" stroke="white" stroke-width="6"/>
<path d="M249.184 70.2517L197.448 79.374C186.734 92.7546 190.551 97.3142 201.81 104.112L253.546 94.9895" stroke="white" stroke-width="6" stroke-linecap="round" stroke-linejoin="round"/>
<path d="M257.871 70.2517L309.606 79.374C320.321 92.7546 316.504 97.3142 305.244 104.112L253.509 94.9895" stroke="white" stroke-width="6" stroke-linecap="round" stroke-linejoin="round"/>
<path d="M253.16 446.929L275.768 387.437V372.37" stroke="white" stroke-width="6" stroke-linejoin="round"/>
<path d="M253.16 447.043L230.553 387.551V372.484" stroke="white" stroke-width="6" stroke-linejoin="round"/>
<path d="M241.855 70.2515V3H263.892V70.2515H241.855Z" stroke="white" stroke-width="6"/>
<path d="M381.305 322.758L415.95 161.423L488.557 97.0833C521.056 122.69 488.557 166.895 488.557 176.94C517.517 213.942 488.557 254.765 467.707 280.105C488.557 316.224 443.434 354.149 381.305 393.315C319.176 432.482 253.52 447.042 253.52 447.042L381.305 322.758Z" stroke="white" stroke-width="6" stroke-linejoin="round"/>
<path d="M124.695 322.758L90.0497 161.423L17.4429 97.0833C-15.0561 122.69 17.4429 166.895 17.4429 176.94C-11.5165 213.942 17.4429 254.765 38.293 280.105C17.4429 316.224 62.5655 354.149 124.695 393.315C186.824 432.482 252.48 447.042 252.48 447.042L124.695 322.758Z" stroke="white" stroke-width="6" stroke-linejoin="round"/>
<path d="M253.481 119.69L131.805 192.267L151.086 310.66L253.481 389.382L355.953 310.66L375.235 192.267L253.481 119.69Z" stroke="white" stroke-width="6"/>
<path d="M253.51 328.182C362.048 255.213 306.733 178.838 253.51 235.562C200.287 178.838 144.971 255.213 253.51 328.182Z" stroke="white" stroke-width="6"/>
</svg>
